<?xml version="1.0" encoding="UTF-8" standalone="no"?>
<svg
   xmlns:dc="http://purl.org/dc/elements/1.1/"
   xmlns:cc="http://creativecommons.org/ns#"
   xmlns:rdf="http://www.w3.org/1999/02/22-rdf-syntax-ns#"
   xmlns:svg="http://www.w3.org/2000/svg"
   xmlns="http://www.w3.org/2000/svg"
   xmlns:sodipodi="http://sodipodi.sourceforge.net/DTD/sodipodi-0.dtd"
   xmlns:inkscape="http://www.inkscape.org/namespaces/inkscape"
   width="135.4749mm"
   height="132.55624mm"
   viewBox="0 0 135.4749 132.55624"
   version="1.1"
   id="svg8"
   inkscape:version="1.0.1 (3bc2e81, 2020-09-07)"
   sodipodi:docname="settings_white.svg">
  <defs
     id="defs2" />
  <sodipodi:namedview
     id="base"
     pagecolor="#ffffff"
     bordercolor="#666666"
     borderopacity="1.0"
     inkscape:pageopacity="0.0"
     inkscape:pageshadow="2"
     inkscape:zoom="0.43625356"
     inkscape:cx="384.02856"
     inkscape:cy="330.65825"
     inkscape:document-units="mm"
     inkscape:current-layer="layer1"
     inkscape:document-rotation="0"
     showgrid="false"
     fit-margin-top="0"
     fit-margin-left="0"
     fit-margin-right="0"
     fit-margin-bottom="0"
     inkscape:window-width="1920"
     inkscape:window-height="1052"
     inkscape:window-x="1366"
     inkscape:window-y="0"
     inkscape:window-maximized="1" />
  <metadata
     id="metadata5">
    <rdf:RDF>
      <cc:Work
         rdf:about="">
        <dc:format>image/svg+xml</dc:format>
        <dc:type
           rdf:resource="http://purl.org/dc/dcmitype/StillImage" />
        <dc:title></dc:title>
      </cc:Work>
    </rdf:RDF>
  </metadata>
  <g
     inkscape:label="Слой 1"
     inkscape:groupmode="layer"
     id="layer1"
     transform="translate(-28.589788,-67.980729)">
    <path
       style="fill:#ececec;stroke-width:0.264583"
       d="m 87.347268,197.29582 c -1.46633,-3.03237 -4.9125,-10.97745 -5.95211,-13.7225 l -0.46239,-1.22095 -4.19155,-1.66024 -4.19155,-1.66024 -2.86379,1.26319 c -9.50227,4.19133 -14.87596,6.32498 -15.54317,6.17151 -0.20282,-0.0467 -2.72067,-2.39722 -5.59523,-5.22349 l -5.22648,-5.13865 0.32332,-1.21134 c 0.42645,-1.59777 2.77669,-7.55896 5.1072,-12.95401 l 1.87232,-4.33433 -0.84879,-2.01567 c -0.46684,-1.10862 -1.2236,-2.92883 -1.6817,-4.04491 l -0.8329,-2.02924 -4.10981,-1.51468 c -5.3045,-1.95499 -11.70364,-4.51115 -13.30408,-5.31438 l -1.25677,-0.63075 v -7.36287 c 0,-6.827 0.0356,-7.3951 0.48932,-7.8057 0.56965,-0.51552 5.09703,-2.5067 12.70944,-5.58972 l 5.39355,-2.18438 1.70072,-4.03859 1.70072,-4.0386 -2.37573,-5.18925 c -2.75436,-6.016311 -4.30601,-9.659581 -4.92821,-11.571451 l -0.44101,-1.3551 5.19916,-5.12719 c 3.17742,-3.13345 5.43483,-5.15843 5.80524,-5.20754 0.74699,-0.099 5.67475,1.66275 12.87178,4.60194 2.99692,1.22391 5.6163,2.21943 5.82084,2.21228 0.20454,-0.007 2.09829,-0.70694 4.20835,-1.55507 2.86644,-1.15216 3.9189,-1.70079 4.16253,-2.16981 0.17934,-0.34526 1.47412,-3.54477 2.8773,-7.11003 1.40318,-3.56526 3.01395,-7.40503 3.57949,-8.53281 l 1.02825,-2.05052 h 7.67008 7.670082 l 1.56744,3.24114 c 1.46093,3.02093 3.5012,7.70726 5.57424,12.80362 l 0.87624,2.15414 4.17246,1.65267 4.17245,1.65268 5.11379,-2.25656 c 6.79233,-2.99727 12.59014,-5.27462 13.17225,-5.17401 0.2594,0.0448 2.83093,2.38326 5.7145,5.1965 l 5.24286,5.11497 -0.32965,1.23503 c -0.41742,1.56387 -2.63448,7.204281 -5.0759,12.913561 l -1.88999,4.41974 0.93479,2.26961 c 0.51414,1.24829 1.27036,3.0706 1.68049,4.04959 l 0.74568,1.77999 3.70417,1.36185 c 5.37076,1.97458 12.23833,4.70001 13.69629,5.43545 l 1.26088,0.63602 -0.0703,7.45965 -0.0703,7.45965 -1.05833,0.59714 c -1.55497,0.87736 -6.99454,3.24933 -12.5406,5.46842 l -4.86768,1.94767 -1.7006,4.03968 -1.7006,4.03968 2.37623,5.19116 c 2.68271,5.86071 4.9458,11.18586 5.21334,12.26725 0.16639,0.67253 -0.20554,1.10188 -5.04246,5.82083 -2.87216,2.80211 -5.4468,5.13306 -5.72144,5.17989 -0.27463,0.0468 -0.94375,-0.0539 -1.48693,-0.22375 -1.78816,-0.55931 -9.38596,-3.49001 -13.12704,-5.06351 -2.02003,-0.84962 -3.8655,-1.53891 -4.10104,-1.53175 -0.23554,0.007 -2.15467,0.70693 -4.26472,1.55507 -2.86644,1.15216 -3.9189,1.70078 -4.16253,2.1698 -0.17934,0.34526 -1.47412,3.54477 -2.8773,7.11003 -1.40318,3.56526 -3.01395,7.40503 -3.57949,8.53282 l -1.02825,2.05052 h -7.670082 -7.67008 z m 14.516882,-42.55407 c 7.36432,-1.85534 13.49179,-7.89941 15.53495,-15.32353 0.64649,-2.34909 0.64427,-7.90272 -0.004,-10.31875 -1.50619,-5.61232 -5.69985,-10.82545 -10.88713,-13.53379 -10.872842,-5.67682 -24.514482,-1.24691 -29.753882,9.66211 -1.60856,3.34919 -1.98135,5.0563 -1.97217,9.03106 0.009,4.08538 0.40116,5.80668 2.10748,9.26041 4.49085,9.08982 14.89078,13.76304 24.974872,11.22249 z"
       id="path861" />
  </g>
</svg>
